<svg href="/" xmlns="http://www.w3.org/2000/svg" xmlns:xlink="http://www.w3.org/1999/xlink" xml:space="preserve" style="enable-background:new 0 0 151.9 169.8" viewBox="0 0 151.9 169.8">
  <path d="M7.2 6.2H143v155.7H7.2z" class="square" style="fill:none;stroke:#000;stroke-width:2;stroke-miterlimit:10"/>
    <a  xlink:href="/">
    <path d="M92.4 113.1c.8.7 1.6 1.5 2.3 2.2 1.1 1 2.3 1.8 3.6 2.5 1.1.6 2.2 1.2 3.3 1.6l3 .9a14.22 14.22 0 0 0 9.2-.7c.9-.4 1.9-1 2.7-1.6 1.2-.9 2.2-2 3-3.3 1.2-2 2.1-4.3 2.5-6.7.5-3 .7-6.2.6-9.3 0-2.1-.2-4.3-.6-6.4-.3-1.8-.8-3.5-1.6-5.1.1 0 .1.1.2.2.6.9 1.3 1.9 1.8 2.8 1 1.7 1.8 3.6 2.4 5.5.6 1.7 1 3.5 1.3 5.4.4 2.6.5 5.3.2 7.9-.2 2.5-.6 4.9-1.3 7.3-.4 1.2-.8 2.4-1.3 3.5-.6 1.4-1.4 2.7-2.3 3.9-.6.7-1.2 1.5-1.9 2.1-1 1-2 1.9-3.2 2.6-.9.6-1.9 1.1-3 1.5-1 .3-2 .7-3.1.9-2.5.6-5.1.7-7.7.1-1-.2-1.9-.4-2.8-.8-1.1-.5-2.1-1-3.1-1.6-.5-.3-.9-.7-1.4-1-.1-.1-.2-.1-.3-.1l-2.2-.6-3.2-.9c-1-.3-1.9-.5-2.9-.7l-4.2-.9c-2.1-.4-4.2-.7-6.3-.8-.5-.1-.9-.1-1.4-.1-.7 0-1.4.1-2.1.2-1.5.2-2.9.3-4.4.5-1.4.2-2.8.6-4.3.9-.9.2-1.9.5-2.8.7l-3.4.9c-.9.2-1.8.5-2.7.7-.1.1-.3.1-.4.3a19.05 19.05 0 0 1-6.9 3.1c-2.5.6-5.1.6-7.7.1-1-.2-2-.5-2.9-.8a19.12 19.12 0 0 1-7.9-5.7 22.2 22.2 0 0 1-3-4.9 25 25 0 0 1-1.9-6.6c-.5-2.8-.8-5.7-.7-8.5.1-2.4.4-4.7 1-7 .5-2 1.3-4 2.2-5.8.6-1.1 1.3-2.2 1.9-3.3.2-.4.6-.8.8-1.2l.1.1c-.2.4-.3.8-.5 1.2-.6 1.5-1 3.1-1.2 4.7-.4 2.9-.6 5.8-.5 8.7 0 3 .4 5.9 1.3 8.8a15.58 15.58 0 0 0 4.6 7.1c.8.7 1.7 1.2 2.6 1.6l2.4.9c1.8.6 3.6.5 5.4.4.4 0 .8-.1 1.3-.2 1-.2 1.9-.5 2.9-.8.7-.2 1.3-.5 2-.8 1-.5 2-1.1 3-1.7l2.1-1.5c.9-.8 1.8-1.7 2.7-2.5l.1-.2.1-.1h-.1l.2.3c-1 .5-2 .9-3.1 1.3-2.5.8-5 .9-7.5.3-.9-.2-1.7-.4-2.5-.8a15.18 15.18 0 0 1-6.3-4.9 20.3 20.3 0 0 1-3.4-8.3c-.4-2-.6-4.1-.6-6.2a25.27 25.27 0 0 1 3.5-12.5c.4-.6.8-1.2 1.2-1.7l.1.1c-.7 1.5-1.2 3.2-1.4 5-.4 2.9-.5 5.8-.2 8.8.1 2.3.7 4.5 1.7 6.5.6 1.2 1.4 2.3 2.3 3.2.7.7 1.5 1.2 2.4 1.6 1 .4 2 .7 3 .9.9.2 1.9.3 2.9.1 1.3-.2 2.6-.5 3.8-.9.5-.2 1.1-.4 1.6-.7 1-.6 2-1.1 2.9-1.7.7-.5 1.3-1 1.9-1.5 1.3-1.2 2.5-2.6 3.6-4.2 1.4-2.3 2.5-4.7 3.2-7.3.7-2.5 1.2-5 1.6-7.5v-.1c-.1 0-.1 0-.2-.1-1-.4-2-.8-3-1.4-.9-.5-1.7-1-2.5-1.6-1-.8-1.9-1.6-2.7-2.4-.7-.7-1.4-1.5-2-2.4a25.5 25.5 0 0 1-3.7-6.9 33 33 0 0 1-1.9-12.1c0-.4-.1-.7-.2-1-.7-2.1-1.5-4.2-2.4-6.3-.8-1.7-1.8-3.4-2.9-4.9-.9-1.1-1.7-2.2-2.7-3.3-.7-.9-1.5-1.6-2.3-2.4-.6-.6-1.3-1.2-2-1.7l-2.1-1.5H63c.3 0 .5 0 .7-.3 0 0 .1 0 .1-.1.7-.4 1.4-.9 2.1-1.3 3.6-1.9 7.6-2.7 11.6-2.3.6 0 1.1.1 1.7.3 1 .2 2 .5 2.9.9 1.1.5 2.2 1 3.3 1.6.5.3 1 .7 1.5 1 .2.1.3.1.5.1h24.9c-.4.3-.7.5-1 .7-.9.7-1.9 1.4-2.8 2.2-.8.7-1.6 1.5-2.3 2.4-.9 1.1-1.9 2.2-2.7 3.3-.8 1-1.5 2.1-2.1 3.3-1.2 2.2-2.2 4.4-2.9 6.8-.1.3-.2.5-.3.8-.6 1.4-.4 2.9-.5 4.3-.1 2.9-.6 5.8-1.5 8.5-.6 1.7-1.3 3.4-2.2 5-.7 1.1-1.4 2.2-2.2 3.3-.9 1.3-2 2.4-3.2 3.4-.7.6-1.4 1.1-2.1 1.6-.9.7-1.9 1.3-2.9 1.7-.6.3-1.2.6-1.9.8l.3 2.1c.4 2.4 1 4.8 1.8 7.1.5 1.3 1 2.6 1.6 3.8.7 1.5 1.7 3 2.8 4.2.8.9 1.6 1.7 2.5 2.5.7.6 1.4 1.1 2.2 1.6 1 .7 2.1 1.2 3.2 1.6 1.2.4 2.4.7 3.6.9 1 .2 2 .3 3 .1 1.1-.2 2.2-.5 3.2-.9a9.19 9.19 0 0 0 5.1-5c.7-1.5 1.2-3 1.5-4.6.3-2 .5-4.1.4-6.1-.1-1.7-.2-3.4-.4-5.1-.1-1.6-.6-3.1-1.3-4.5l.1-.1c.5.8 1.1 1.5 1.6 2.3.5.9.9 1.8 1.3 2.7.8 1.8 1.3 3.8 1.6 5.8.5 3.8.3 7.8-.7 11.5-.4 1.6-1 3.1-1.8 4.6-.6 1.2-1.5 2.3-2.4 3.3-.6.6-1.2 1.1-1.9 1.7-.9.7-1.8 1.3-2.9 1.7-.8.3-1.6.6-2.4.8-2.2.6-4.5.7-6.8.2-.8-.2-1.6-.4-2.4-.8-.8-.2-1.4-.6-2.1-.8v-.2h-.1l.1.1v.1zM59.3 61.7c0 .3.1.5.1.6.3 1.3.7 2.5 1.4 3.6.3.7.7 1.4 1.2 2 .6.9 1.3 1.8 2 2.6.7.6 1.4 1.2 2.3 1.5 1.4.7 2.9 1 4.4 1 .1 0 .3-.1.3-.2.2-.4.3-.8.4-1.3.2-1.1-.3-2.2-1.2-2.6-.8-.4-1.6-.8-2.3-1.3-.9-.5-1.7-1.1-2.5-1.7l-1.9-1.3-1.2-.9-3-2zm31.9.1-.1-.1-.1.1c-.9.7-1.7 1.4-2.6 2-.7.6-1.5 1.1-2.3 1.7-1.2.8-2.4 1.7-3.6 2.5-.7.4-1.4.8-2.1 1.1-.6.3-1 .8-1.1 1.4-.1.7-.1 1.5.3 2.2.1.3.3.4.6.4l2.1-.3a8.47 8.47 0 0 0 4.6-2.4c.7-.9 1.4-1.8 2-2.7.8-1.1 1.4-2.4 1.9-3.7 0-.7.2-1.5.4-2.2zm-32.9 50.9zm33.8 0z"/>
    </a>
  <path  class="hexa"  d="m73.6 156.8-62.8-37.4 1.1-73 63.7-35.6 62.7 37.4-1 73z" style="fill:none;stroke:red;stroke-width:2;stroke-miterlimit:10"/>
</svg>
