<?xml version="1.0" encoding="UTF-8"?>
<svg xmlns="http://www.w3.org/2000/svg" baseProfile="tiny" version="1.2" xmlns:cc="http://creativecommons.org/ns#" xmlns:dc="http://purl.org/dc/elements/1.1/" xmlns:inkscape="http://www.inkscape.org/namespaces/inkscape" xmlns:rdf="http://www.w3.org/1999/02/22-rdf-syntax-ns#" xmlns:sodipodi="http://sodipodi.sourceforge.net/DTD/sodipodi-0.dtd" xmlns:svg="http://www.w3.org/2000/svg" xmlns:xlink="http://www.w3.org/1999/xlink" width="319" height="64" viewBox="0 -310 8800 1772">
  <defs>
    <radialGradient id="Unbenannter_Verlauf_317" data-name="Unbenannter Verlauf 317" cx="729.06" cy="579.06" fx="729.06" fy="579.06" r="223.58" gradientUnits="userSpaceOnUse">
      <stop offset=".37" stop-color="#e8443d"/>
      <stop offset=".4"  stop-color="#e8473c"/>
      <stop offset=".43" stop-color="#ea503a"/>
      <stop offset=".45" stop-color="#ed6136"/>
      <stop offset=".48" stop-color="#f17930"/>
      <stop offset=".5"  stop-color="#f69729"/>
      <stop offset=".51" stop-color="#f9a826"/>
      <stop offset=".6"  stop-color="#fbda42"/>
      <stop offset=".61" stop-color="#fce448"/>
      <stop offset=".67" stop-color="#c1d23c"/>
      <stop offset=".69" stop-color="#b0cd39"/>
      <stop offset=".76" stop-color="#65c46c"/>
      <stop offset=".82" stop-color="#67c1e1"/>
      <stop offset=".83" stop-color="#68c1e6"/>
      <stop offset=".88" stop-color="#3096ce"/>
      <stop offset=".93" stop-color="#6465ac"/>
    </radialGradient>
    <linearGradient id="hat-gradient" x1="0" y1="-250" x2="0" y2="220" gradientUnits="userSpaceOnUse">
      <stop offset="0%"   stop-color="#e8443d"/>
      <stop offset="25%"  stop-color="#f9a826"/>
      <stop offset="50%"  stop-color="#fbda42"/>
      <stop offset="75%"  stop-color="#65c46c"/>
      <stop offset="100%" stop-color="#3096ce"/>
    </linearGradient>
    <!-- Rainbow gradient for text, spanning the text area -->
    <linearGradient id="text-rainbow" x1="1612" y1="0" x2="8700" y2="0" gradientUnits="userSpaceOnUse">
      <stop offset="0%"   stop-color="#e8443d"/>
      <stop offset="20%"  stop-color="#f9a826"/>
      <stop offset="40%"  stop-color="#fbda42"/>
      <stop offset="60%"  stop-color="#65c46c"/>
      <stop offset="80%"  stop-color="#3096ce"/>
      <stop offset="100%" stop-color="#6465ac"/>
    </linearGradient>
  </defs>

  <!-- Original logo -->
  <g id="svg145" inkscape:version="0.92.5 (2060ec1f9f, 2020-04-08)" sodipodi:docname="LogoBlue2.svg">
    <sodipodi:namedview id="namedview147" bordercolor="#666666" borderopacity="1" gridtolerance="10" guidetolerance="10" inkscape:current-layer="layer3" inkscape:cx="419.00668" inkscape:cy="757.62137" inkscape:pageopacity="0" inkscape:pageshadow="2" inkscape:window-height="1016" inkscape:window-maximized="1" inkscape:window-width="1848" inkscape:window-x="1992" inkscape:window-y="27" inkscape:zoom="0.64569083" objecttolerance="10" pagecolor="#ffffff" showgrid="false"/>
    <g id="layer3" inkscape:groupmode="layer" inkscape:label="Layer 1">
      <rect id="rect3824" x="515.2" y="512.3" width="435.72" height="133.52" fill="url(#Unbenannter_Verlauf_317)"/>
    </g>
    <g id="layer1">
      <path id="path142" d="M278,1312.4c-62.7-7.4-108.9-25.6-150.7-59.3-10.9-8.8-29-26.9-37.5-37.7-18.1-22.8-35.2-55.7-43.6-83.9-24-80.7-22-161.8,5.8-231.5,14.9-37.3,38.5-74.4,62.3-97.9,8.4-8.2,12.6-9.2,5.5-1.2-10.9,12.1-21.9,41.3-27.3,72.2-5.2,29.7-6.9,55.4-6.2,96.1.7,42.8,3.8,64.8,13.3,93.8,15.8,48,44.3,82.4,85.4,103,28.5,14.3,59.1,21.1,94.5,21.1,47.7.1,94.2-11.7,141.5-35.7,22.8-11.5,50.6-30.1,68-45.3,3.5-3,3.3-2.9-8.5,1.8-28.5,11.5-53.5,16.1-86.5,16.1-28.7,0-49.7-3.3-74.9-11.6-46.1-15.4-84.1-44.9-108.5-84.3-14.5-23.5-24.8-52.5-30.5-86.7-4.6-27.5-5.3-63.3-1.6-87.4,6.4-41.9,22.5-81,47-114,9.5-12.7,22.7-26.6,24.3-25.6.9.5.2,2-2.2,4.8-10.9,12.7-19.7,40.6-24.3,76.9-2.1,17.1-2.5,74.6-.5,88.4,4.9,34.3,14.5,61.6,29.2,82.3,25.8,36.5,69.7,57.1,122.2,57.2,65.8.1,134.2-30.5,184.9-82.6,12.4-12.7,19-21,28.4-35.3,23.1-35,40.5-81.1,51.5-135.9,3.9-19.5,3.9-19.9-.2-20.8-5.9-1.2-27-9.5-39.5-15.5-64.9-30.6-119.3-86-148.6-151.3-10.9-24.1-19.3-52.5-23.8-80.1-1.6-9.8-2.2-19.4-2.6-39l-.5-26-5.3-14.1c-18.5-49.5-41.3-90.3-67.9-121.3-35.5-41.6-78.2-78.1-116.4-99.5-5.6-3.1-10-6.2-9.7-6.7.4-.5,67-.9,172.2-.9h171.5l9.6-5.6c34.7-19.9,71.8-32.4,114.7-38.6,12.2-1.8,64.8-1.8,77,0,42.9,6.2,79.9,18.6,114.7,38.6l9.6,5.6h171.5c105.2,0,171.8.4,172.2.9.3.5-4.1,3.6-9.7,6.7-38.2,21.4-80.9,57.9-116.4,99.5-26.6,31-49.4,71.8-67.9,121.3l-5.3,14.1-.5,26c-.7,36.2-4.8,59.8-15.8,92.3-26.4,77.4-85,143-159.2,178.1-12.5,6-33.6,14.3-39.4,15.5-4.2.9-4.2,1.3-.2,20.8,11.2,55.9,28.8,102.3,52.2,137.3,24.4,36.7,63.3,70,105.5,90.6,73.3,35.8,151.9,34.4,202.3-3.5,30.8-23.2,48.8-58.5,56.1-110.1,2-13.8,1.6-71.3-.5-88.4-4.6-36.3-13.4-64.2-24.3-76.9-2.4-2.8-3.1-4.3-2.2-4.8,1.6-1,14.8,12.9,24.3,25.6,20,27,34.5,58,42.4,91,4.5,18.9,6.2,31.5,6.8,53.1.9,29.9-1.9,53.8-9.8,84.8-10,39.4-27.1,69.5-54.5,96.2-22.8,22.1-47.3,36.9-78.5,47.3-25.2,8.3-46.2,11.6-74.9,11.6-33,0-58-4.6-86.5-16.1-11.8-4.7-12-4.8-8.5-1.8,19,16.6,45.6,34.2,70.9,46.8,45.3,22.7,92.1,34.3,138.6,34.2,35.4,0,66-6.8,94.5-21.1,54.2-27.2,86-77.6,96.6-153,3.5-25.2,2.9-89.4-1.2-120.4-5.6-42.8-16.8-76.7-30.2-91.7-2.7-3.1-3.9-5-3.1-5.4,1.5-1,14,11.5,24,23.8,48.5,59.9,73.3,138.4,68.9,218.3-3.4,63-19.8,118.6-47,159.8-9.7,14.8-16.4,23-29.5,36.5-39.7,40.8-91.5,66.5-154,76.3-19.1,3-67.3,3.3-86,.5-35.1-5.3-68.6-16.3-94.1-31.1-6-3.4-12.2-7-13.9-7.9-3.6-2-92.4-22.5-131-30.2-41.3-8.3-68.4-12-115-16.1-30.2-2.6-47.3-1.9-98,3.7-25.6,2.8-47,6.2-78,12.4-38.6,7.7-127.4,28.2-131,30.2-1.6.9-7.9,4.5-13.9,7.9-24.8,14.4-57.3,25.3-90.6,30.5-10.8,1.7-19,2.2-41,2.4-15.1.2-29.1.1-31-.1ZM672.5,632.9c1.5-3.4,2.9-8.7,3.2-11.8,1.2-13.3-4.7-21.2-19.9-26.9-18.4-6.9-60.3-30.8-115.9-66.2l-24.7-15.7,1.9,6.8c4,14.4,11.1,29,22.6,46.4,9.3,14.1,24,32.3,30.9,38.4,24.1,21.3,56.9,33.2,96,35,2.9.1,3.3-.3,5.9-6ZM821.9,635.9c20.9-3.5,43.3-12.4,58.5-23.3,9.9-7.1,15.3-12.3,24.8-24,19.9-24.4,34.1-49.1,39.7-69.5l1.9-6.8-24.7,15.7c-57.4,36.5-98.4,59.8-118.1,67-16.6,6.2-22.2,20.7-14.5,37.9l2.8,6.1,9.1-.6c5-.3,14.2-1.5,20.5-2.5Z"/>
    </g>
  </g>

  <!-- Party hat -->
  <g id="party-hat">
    <polygon points="731,-250 516,220 946,220" fill="url(#hat-gradient)"/>
    <ellipse cx="731" cy="220" rx="218" ry="28" fill="#1a72a8"/>
    <circle cx="733" cy="-246" r="55" fill="#5353a0"/>
    <circle cx="731" cy="-252" r="52" fill="#6465ac"/>
    <circle cx="716" cy="-266" r="16" fill="rgba(255,255,255,0.45)"/>
    <circle cx="475" cy="110" r="16" fill="#fbda42"/>
    <circle cx="468" cy="185" r="11" fill="#6465ac"/>
    <circle cx="982" cy="65"  r="13" fill="#68c1e6"/>
    <circle cx="970" cy="160" r="10" fill="#f9a826"/>
    <circle cx="493" cy="30"  r="9"  fill="#65c46c"/>
    <circle cx="968" cy="-15" r="8"  fill="#e8443d"/>
    <rect x="456" y="68"  width="14" height="14" fill="#f17930" transform="rotate(45 463 75)"/>
    <rect x="985" y="115" width="14" height="14" fill="#fbda42" transform="rotate(45 992 122)"/>
    <rect x="460" y="148" width="12" height="12" fill="#68c1e6" transform="rotate(45 466 154)"/>
  </g>

  <!-- Confetti around the text area -->
  <circle cx="1680" cy="80"   r="40" fill="#e8443d"/>
  <circle cx="1900" cy="-100" r="30" fill="#f9a826"/>
  <circle cx="2300" cy="50"   r="35" fill="#fbda42"/>
  <circle cx="2700" cy="-80"  r="25" fill="#65c46c"/>
  <circle cx="3200" cy="90"   r="38" fill="#3096ce"/>
  <circle cx="3700" cy="-60"  r="28" fill="#6465ac"/>
  <circle cx="4200" cy="70"   r="32" fill="#e8443d"/>
  <circle cx="4700" cy="-90"  r="30" fill="#f9a826"/>
  <circle cx="5200" cy="60"   r="36" fill="#65c46c"/>
  <circle cx="5700" cy="-70"  r="26" fill="#3096ce"/>
  <circle cx="6200" cy="85"   r="34" fill="#6465ac"/>
  <circle cx="6700" cy="-50"  r="28" fill="#fbda42"/>
  <circle cx="1750" cy="1350" r="35" fill="#f9a826"/>
  <circle cx="2200" cy="1430" r="28" fill="#65c46c"/>
  <circle cx="2800" cy="1360" r="32" fill="#e8443d"/>
  <circle cx="3400" cy="1440" r="26" fill="#3096ce"/>
  <circle cx="4000" cy="1370" r="38" fill="#fbda42"/>
  <circle cx="4600" cy="1450" r="24" fill="#6465ac"/>
  <circle cx="5300" cy="1380" r="30" fill="#f9a826"/>
  <circle cx="5900" cy="1430" r="34" fill="#e8443d"/>
  <circle cx="6500" cy="1360" r="28" fill="#65c46c"/>
  <!-- Diamond confetti -->
  <rect x="2050" y="-120" width="60" height="60" fill="#65c46c"  transform="rotate(30 2080 -90)"/>
  <rect x="3000" y="30"   width="55" height="55" fill="#e8443d"  transform="rotate(45 3027 57)"/>
  <rect x="4400" y="-100" width="58" height="58" fill="#f9a826"  transform="rotate(20 4429 -71)"/>
  <rect x="5600" y="40"   width="50" height="50" fill="#3096ce"  transform="rotate(55 5625 65)"/>
  <rect x="2500" y="1410" width="55" height="55" fill="#6465ac"  transform="rotate(40 2527 1437)"/>
  <rect x="3800" y="1350" width="60" height="60" fill="#fbda42"  transform="rotate(25 3830 1380)"/>
  <rect x="5000" y="1420" width="52" height="52" fill="#e8443d"  transform="rotate(50 5026 1446)"/>

  <!-- "10 years!" to the right, vertically centered, matching octopus size -->
  <text
    x="1612"
    y="1050"
    font-family="Impact, 'Arial Black', Arial, sans-serif"
    font-size="1200"
    font-weight="900"
    fill="url(#text-rainbow)"
  >10 years!</text>
</svg>
