<?xml version="1.0" encoding="utf-8"?>
<!-- Generator: Adobe Illustrator 30.1.0, SVG Export Plug-In . SVG Version: 9.03 Build 0)  -->
<svg version="1.0"
	 id="svg145" xmlns:svg="http://www.w3.org/2000/svg" xmlns:sodipodi="http://sodipodi.sourceforge.net/DTD/sodipodi-0.dtd" xmlns:rdf="http://www.w3.org/1999/02/22-rdf-syntax-ns#" xmlns:dc="http://purl.org/dc/elements/1.1/" xmlns:cc="http://creativecommons.org/ns#" xmlns:inkscape="http://www.inkscape.org/namespaces/inkscape" inkscape:version="0.92.5 (2060ec1f9f, 2020-04-08)" sodipodi:docname="LogoBlue2.svg"
	 xmlns="http://www.w3.org/2000/svg" xmlns:xlink="http://www.w3.org/1999/xlink" x="0px" y="0px" viewBox="0 0 1462 1462"
	 style="enable-background:new 0 0 1462 1462;" xml:space="preserve">
<style type="text/css">
	.st0{fill:#FF0000;}
</style>
<sodipodi:namedview  bordercolor="#666666" borderopacity="1" gridtolerance="10" guidetolerance="10" id="namedview147" inkscape:current-layer="layer3" inkscape:cx="419.00668" inkscape:cy="757.62137" inkscape:pageopacity="0" inkscape:pageshadow="2" inkscape:window-height="1016" inkscape:window-maximized="1" inkscape:window-width="1848" inkscape:window-x="1992" inkscape:window-y="27" inkscape:zoom="0.64569083" objecttolerance="10" pagecolor="#ffffff" showgrid="false">
	</sodipodi:namedview>
<g id="layer3" inkscape:groupmode="layer" inkscape:label="Layer 1">
	<rect id="rect3824" x="515.2" y="512.3" class="st0" width="435.72" height="133.52"/>
</g>
<g id="layer1">
	<path id="path142" d="M278,1312.4c-62.7-7.4-108.9-25.6-150.7-59.3c-10.9-8.8-29-26.9-37.5-37.7c-18.1-22.8-35.2-55.7-43.6-83.9
		c-24-80.7-22-161.8,5.8-231.5c14.9-37.3,38.5-74.4,62.3-97.9c8.4-8.2,12.6-9.2,5.5-1.2c-10.9,12.1-21.9,41.3-27.3,72.2
		c-5.2,29.7-6.9,55.4-6.2,96.1c0.7,42.8,3.8,64.8,13.3,93.8c15.8,48,44.3,82.4,85.4,103c28.5,14.3,59.1,21.1,94.5,21.1
		c47.7,0.1,94.2-11.7,141.5-35.7c22.8-11.5,50.6-30.1,68-45.3c3.5-3,3.3-2.9-8.5,1.8C452,1119.4,427,1124,394,1124
		c-28.7,0-49.7-3.3-74.9-11.6c-46.1-15.4-84.1-44.9-108.5-84.3c-14.5-23.5-24.8-52.5-30.5-86.7c-4.6-27.5-5.3-63.3-1.6-87.4
		c6.4-41.9,22.5-81,47-114c9.5-12.7,22.7-26.6,24.3-25.6c0.9,0.5,0.2,2-2.2,4.8c-10.9,12.7-19.7,40.6-24.3,76.9
		c-2.1,17.1-2.5,74.6-0.5,88.4c4.9,34.3,14.5,61.6,29.2,82.3c25.8,36.5,69.7,57.1,122.2,57.2c65.8,0.1,134.2-30.5,184.9-82.6
		c12.4-12.7,19-21,28.4-35.3c23.1-35,40.5-81.1,51.5-135.9c3.9-19.5,3.9-19.9-0.2-20.8c-5.9-1.2-27-9.5-39.5-15.5
		c-64.9-30.6-119.3-86-148.6-151.3c-10.9-24.1-19.3-52.5-23.8-80.1c-1.6-9.8-2.2-19.4-2.6-39l-0.5-26l-5.3-14.1
		c-18.5-49.5-41.3-90.3-67.9-121.3c-35.5-41.6-78.2-78.1-116.4-99.5c-5.6-3.1-10-6.2-9.7-6.7c0.4-0.5,67-0.9,172.2-0.9h171.5
		l9.6-5.6c34.7-19.9,71.8-32.4,114.7-38.6c12.2-1.8,64.8-1.8,77,0c42.9,6.2,79.9,18.6,114.7,38.6l9.6,5.6h171.5
		c105.2,0,171.8,0.4,172.2,0.9c0.3,0.5-4.1,3.6-9.7,6.7c-38.2,21.4-80.9,57.9-116.4,99.5c-26.6,31-49.4,71.8-67.9,121.3l-5.3,14.1
		l-0.5,26c-0.7,36.2-4.8,59.8-15.8,92.3c-26.4,77.4-85,143-159.2,178.1c-12.5,6-33.6,14.3-39.4,15.5c-4.2,0.9-4.2,1.3-0.2,20.8
		c11.2,55.9,28.8,102.3,52.2,137.3c24.4,36.7,63.3,70,105.5,90.6c73.3,35.8,151.9,34.4,202.3-3.5c30.8-23.2,48.8-58.5,56.1-110.1
		c2-13.8,1.6-71.3-0.5-88.4c-4.6-36.3-13.4-64.2-24.3-76.9c-2.4-2.8-3.1-4.3-2.2-4.8c1.6-1,14.8,12.9,24.3,25.6
		c20,27,34.5,58,42.4,91c4.5,18.9,6.2,31.5,6.8,53.1c0.9,29.9-1.9,53.8-9.8,84.8c-10,39.4-27.1,69.5-54.5,96.2
		c-22.8,22.1-47.3,36.9-78.5,47.3c-25.2,8.3-46.2,11.6-74.9,11.6c-33,0-58-4.6-86.5-16.1c-11.8-4.7-12-4.8-8.5-1.8
		c19,16.6,45.6,34.2,70.9,46.8c45.3,22.7,92.1,34.3,138.6,34.2c35.4,0,66-6.8,94.5-21.1c54.2-27.2,86-77.6,96.6-153
		c3.5-25.2,2.9-89.4-1.2-120.4c-5.6-42.8-16.8-76.7-30.2-91.7c-2.7-3.1-3.9-5-3.1-5.4c1.5-1,14,11.5,24,23.8
		c48.5,59.9,73.3,138.4,68.9,218.3c-3.4,63-19.8,118.6-47,159.8c-9.7,14.8-16.4,23-29.5,36.5c-39.7,40.8-91.5,66.5-154,76.3
		c-19.1,3-67.3,3.3-86,0.5c-35.1-5.3-68.6-16.3-94.1-31.1c-6-3.4-12.2-7-13.9-7.9c-3.6-2-92.4-22.5-131-30.2
		c-41.3-8.3-68.4-12-115-16.1c-30.2-2.6-47.3-1.9-98,3.7c-25.6,2.8-47,6.2-78,12.4c-38.6,7.7-127.4,28.2-131,30.2
		c-1.6,0.9-7.9,4.5-13.9,7.9c-24.8,14.4-57.3,25.3-90.6,30.5c-10.8,1.7-19,2.2-41,2.4C293.9,1312.7,279.9,1312.6,278,1312.4z
		 M672.5,632.9c1.5-3.4,2.9-8.7,3.2-11.8c1.2-13.3-4.7-21.2-19.9-26.9c-18.4-6.9-60.3-30.8-115.9-66.2l-24.7-15.7l1.9,6.8
		c4,14.4,11.1,29,22.6,46.4c9.3,14.1,24,32.3,30.9,38.4c24.1,21.3,56.9,33.2,96,35C669.5,639,669.9,638.6,672.5,632.9z M821.9,635.9
		c20.9-3.5,43.3-12.4,58.5-23.3c9.9-7.1,15.3-12.3,24.8-24c19.9-24.4,34.1-49.1,39.7-69.5l1.9-6.8L922.1,528
		c-57.4,36.5-98.4,59.8-118.1,67c-16.6,6.2-22.2,20.7-14.5,37.9l2.8,6.1l9.1-0.6C806.4,638.1,815.6,636.9,821.9,635.9z"/>
</g>
</svg>
